<mxfile host="65bd71144e">
    <diagram id="HUtzCbDEeJswI2Xemcpe" name="Page-1">
        <mxGraphModel dx="332" dy="672" grid="1" gridSize="20" guides="1" tooltips="1" connect="1" arrows="1" fold="1" page="0" pageScale="1" pageWidth="850" pageHeight="1100" background="none" math="0" shadow="0">
            <root>
                <mxCell id="0"/>
                <mxCell id="1" parent="0"/>
                <mxCell id="2" value="StudentData()" style="swimlane;whiteSpace=wrap;html=1;" parent="1" vertex="1">
                    <mxGeometry y="66" width="200" height="200" as="geometry"/>
                </mxCell>
                <mxCell id="5" value="" style="shape=link;html=1;" edge="1" parent="2">
                    <mxGeometry width="100" relative="1" as="geometry">
                        <mxPoint x="1" y="59" as="sourcePoint"/>
                        <mxPoint x="199" y="59" as="targetPoint"/>
                        <Array as="points"/>
                    </mxGeometry>
                </mxCell>
                <mxCell id="7" value="- name : string" style="text;html=1;align=center;verticalAlign=middle;resizable=0;points=[];autosize=1;strokeColor=none;fillColor=none;" vertex="1" parent="2">
                    <mxGeometry y="27" width="99" height="33" as="geometry"/>
                </mxCell>
                <mxCell id="10" value="+ StudentData()" style="text;html=1;align=center;verticalAlign=middle;resizable=0;points=[];autosize=1;strokeColor=none;fillColor=none;" vertex="1" parent="2">
                    <mxGeometry y="60" width="99" height="33" as="geometry"/>
                </mxCell>
                <mxCell id="11" value="+ StudenData(string name)" style="text;html=1;align=center;verticalAlign=middle;resizable=0;points=[];autosize=1;strokeColor=none;fillColor=none;" vertex="1" parent="2">
                    <mxGeometry y="93" width="165" height="33" as="geometry"/>
                </mxCell>
                <mxCell id="3" value="Address()" style="swimlane;whiteSpace=wrap;html=1;" vertex="1" parent="1">
                    <mxGeometry x="33" y="330" width="198" height="200" as="geometry"/>
                </mxCell>
                <mxCell id="4" value="Date()" style="swimlane;whiteSpace=wrap;html=1;" vertex="1" parent="1">
                    <mxGeometry x="264" y="240" width="200" height="200" as="geometry"/>
                </mxCell>
            </root>
        </mxGraphModel>
    </diagram>
</mxfile>